<?xml version="1.0" encoding="UTF-8" standalone="no"?>
<!DOCTYPE svg PUBLIC "-//W3C//DTD SVG 1.1//EN" "http://www.w3.org/Graphics/SVG/1.1/DTD/svg11.dtd">
<svg width="100%" height="100%" viewBox="0 0 126 164" version="1.1" xmlns="http://www.w3.org/2000/svg" xmlns:xlink="http://www.w3.org/1999/xlink" xml:space="preserve" xmlns:serif="http://www.serif.com/" style="fill-rule:evenodd;clip-rule:evenodd;stroke-linejoin:round;stroke-miterlimit:2;">
    <g transform="matrix(1,0,0,1,64.9806,79.1907)">
        <path d="M33.2,-57.7C40.8,-46.7 43.3,-33.8 47.2,-22.4C51,-11 56.2,-1.1 58.7,11.2C61.2,23.5 61.1,38.1 55.5,52.4C49.8,66.6 38.8,80.4 25,83.9C11.2,87.3 -5.2,80.4 -21.1,74.5C-37,68.6 -52.4,63.7 -58.7,52.9C-64.9,42 -62,25.3 -62.5,10.1C-63,-5.1 -66.8,-18.7 -63.9,-31C-61.1,-43.3 -51.5,-54.3 -39.8,-63.5C-28,-72.7 -14,-80.1 -0.6,-79.1C12.8,-78.1 25.5,-68.8 33.2,-57.7Z" style="fill:rgb(225,190,231);fill-rule:nonzero;"/>
    </g>
</svg>
