<?xml version="1.0" encoding="UTF-8" standalone="no"?>
<!DOCTYPE svg PUBLIC "-//W3C//DTD SVG 1.1//EN" "http://www.w3.org/Graphics/SVG/1.1/DTD/svg11.dtd">
<svg width="100%" height="100%" viewBox="0 0 602 202" version="1.1" xmlns="http://www.w3.org/2000/svg" xmlns:xlink="http://www.w3.org/1999/xlink" xml:space="preserve" xmlns:serif="http://www.serif.com/" style="fill-rule:evenodd;clip-rule:evenodd;stroke-linecap:round;stroke-linejoin:round;stroke-miterlimit:1.5;">
    <g transform="matrix(0.864213,0,0,0.864213,15.0823,-620.12)">
        <g transform="matrix(1,0,0,1,0,82.8237)">
            <path d="M85.646,836.655C78.304,836.655 71.238,835.649 64.449,833.638C57.66,831.626 51.751,828.609 46.722,824.585L59.094,806.632C61.809,809.046 65.38,811.183 69.805,813.044C74.231,814.905 78.656,815.835 83.082,815.835C84.791,815.835 86.325,815.634 87.683,815.232C89.041,814.829 89.72,814.125 89.72,813.12C89.72,812.315 89.343,811.711 88.588,811.309C87.834,810.907 86.2,810.504 83.685,810.102L78.254,809.046C67.291,806.934 59.546,803.917 55.02,799.994C50.494,796.071 48.231,790.791 48.231,784.153C48.231,780.029 49.564,775.981 52.229,772.008C54.894,768.035 59.144,764.741 64.977,762.126C70.811,759.511 78.505,758.204 88.06,758.204C95.905,758.204 102.946,759.184 109.182,761.146C115.418,763.107 120.497,765.797 124.419,769.217L112.501,786.416C109.685,784.203 106.089,782.418 101.714,781.06C97.339,779.702 93.341,779.023 89.72,779.023C88.111,779.023 86.803,779.124 85.797,779.325C84.791,779.526 84.062,779.803 83.61,780.155C83.157,780.507 82.931,780.934 82.931,781.437C82.931,782.141 83.434,782.795 84.439,783.399C85.445,784.002 87.406,784.555 90.323,785.058L101.035,786.869C109.182,788.176 115.141,790.791 118.913,794.714C122.684,798.636 124.57,803.464 124.57,809.197C124.57,814.125 123.238,818.677 120.572,822.851C117.907,827.025 113.733,830.369 108.05,832.883C102.368,835.398 94.9,836.655 85.646,836.655Z" style="fill-rule:nonzero;"/>
            <path d="M233.799,759.712L269.705,759.712L249.187,835.146L206.039,835.146L197.289,798.033L188.538,835.146L145.39,835.146L124.872,759.712L160.779,759.712L169.378,811.46L180.241,759.712L214.337,759.712L225.199,811.46L233.799,759.712Z" style="fill-rule:nonzero;"/>
            <g transform="matrix(1,0,0,0.824747,-5.68434e-14,146.362)">
                <path d="M308.931,761.513L308.931,835.146L274.231,835.146L274.231,761.513C278.896,768.815 303.299,769.512 308.931,761.513Z" style="fill-rule:nonzero;"/>
            </g>
            <g transform="matrix(1,0,0,-1,0,1510.82)">
                <g transform="matrix(1,-1.58629e-17,-1.45661e-17,0.799305,-5.52937e-14,165.677)">
                    <path d="M308.931,761.513L308.931,835.146L274.231,835.146L274.231,761.513C278.896,768.815 303.299,769.512 308.931,761.513Z" style="fill-rule:nonzero;"/>
                </g>
                <g transform="matrix(1,0,0,1,0,15.0316)">
                    <path d="M291.581,754.885C284.742,754.885 279.889,753.778 277.022,751.565C274.156,749.353 272.723,745.631 272.723,740.401C272.723,735.071 274.156,731.324 277.022,729.162C279.889,726.999 284.742,725.918 291.581,725.918C298.42,725.918 303.273,726.999 306.14,729.162C309.006,731.324 310.44,735.071 310.44,740.401C310.44,745.631 309.006,749.353 306.14,751.565C303.273,753.778 298.42,754.885 291.581,754.885Z" style="fill-rule:nonzero;"/>
                </g>
            </g>
            <g transform="matrix(1,0,0,1,0,15.0316)">
                <path d="M291.581,754.885C284.742,754.885 279.889,753.778 277.022,751.565C274.156,749.353 272.723,745.631 272.723,740.401C272.723,735.071 274.156,731.324 277.022,729.162C279.889,726.999 284.742,725.918 291.581,725.918C298.42,725.918 303.273,726.999 306.14,729.162C309.006,731.324 310.44,735.071 310.44,740.401C310.44,745.631 309.006,749.353 306.14,751.565C303.273,753.778 298.42,754.885 291.581,754.885Z" style="fill-rule:nonzero;"/>
            </g>
            <g transform="matrix(1,0,0,1,-9.09495e-13,15.0316)">
                <path d="M291.581,754.885C284.742,754.885 279.889,753.778 277.022,751.565C274.156,749.353 272.723,745.631 272.723,740.401C272.723,735.071 274.156,731.324 277.022,729.162C279.889,726.999 284.742,725.918 291.581,725.918C298.42,725.918 303.273,726.999 306.14,729.162C309.006,731.324 310.44,735.071 310.44,740.401C310.44,745.631 309.006,749.353 306.14,751.565C303.273,753.778 298.42,754.885 291.581,754.885Z" style="fill-rule:nonzero;"/>
            </g>
            <g transform="matrix(1,0,0,1,-9.09495e-13,-79.9726)">
                <path d="M291.581,754.885C284.742,754.885 279.889,753.778 277.022,751.565C274.156,749.353 272.723,745.631 272.723,740.401C272.723,735.071 274.156,731.324 277.022,729.162C279.889,726.999 284.742,725.918 291.581,725.918C298.42,725.918 303.273,726.999 306.14,729.162C309.006,731.324 310.44,735.071 310.44,740.401C310.44,745.631 309.006,749.353 306.14,751.565C303.273,753.778 298.42,754.885 291.581,754.885Z" style="fill-rule:nonzero;"/>
            </g>
            <path d="M320.699,835.146L320.699,759.712L351.928,759.712L353.437,791.696L349.967,787.925C350.671,781.689 352.23,776.358 354.644,771.933C357.058,767.507 360.301,764.113 364.375,761.749C368.448,759.385 373.301,758.204 378.934,758.204C383.963,758.204 388.237,759.184 391.757,761.146C395.278,763.107 397.968,765.973 399.829,769.745C401.69,773.517 402.62,778.118 402.62,783.549L402.62,835.146L367.92,835.146L367.92,792.149C367.92,788.93 367.468,786.743 366.562,785.586C365.657,784.429 364.299,783.851 362.489,783.851C360.88,783.851 359.547,784.228 358.491,784.983C357.435,785.737 356.655,786.969 356.153,788.679C355.65,790.389 355.398,792.601 355.398,795.317L355.398,835.146L320.699,835.146Z" style="fill-rule:nonzero;"/>
            <path d="M414.237,835.146L414.237,759.712L445.466,759.712L446.975,791.696L443.505,787.925C444.209,781.689 445.768,776.358 448.182,771.933C450.596,767.507 453.84,764.113 457.913,761.749C461.986,759.385 466.839,758.204 472.472,758.204C477.501,758.204 481.775,759.184 485.296,761.146C488.816,763.107 491.506,765.973 493.367,769.745C495.228,773.517 496.158,778.118 496.158,783.549L496.158,835.146L461.458,835.146L461.458,792.149C461.458,788.93 461.006,786.743 460.101,785.586C459.195,784.429 457.838,783.851 456.027,783.851C454.418,783.851 453.085,784.228 452.029,784.983C450.973,785.737 450.194,786.969 449.691,788.679C449.188,790.389 448.936,792.601 448.936,795.317L448.936,835.146L414.237,835.146Z" style="fill-rule:nonzero;"/>
            <path d="M548.057,836.655C539.005,836.655 531.26,835.121 524.823,832.053C518.386,828.986 513.458,824.535 510.038,818.702C506.618,812.868 504.908,805.777 504.908,797.429C504.908,789.081 506.643,781.99 510.113,776.157C513.583,770.323 518.461,765.873 524.747,762.805C531.034,759.737 538.351,758.204 546.699,758.204C555.248,758.204 562.515,759.737 568.499,762.805C574.484,765.873 579.035,770.172 582.153,775.704C585.271,781.236 586.83,787.673 586.83,795.015C586.83,796.625 586.754,798.284 586.603,799.994C586.452,801.704 586.276,803.062 586.075,804.067L527.237,804.067L527.237,791.244L570.989,791.244L554.544,797.731C554.544,792.3 554.066,788.176 553.111,785.36C552.155,782.544 550.068,781.136 546.85,781.136C544.737,781.136 543.003,781.638 541.645,782.644C540.287,783.65 539.306,785.385 538.703,787.849C538.099,790.313 537.798,793.708 537.798,798.033C537.798,802.358 538.2,805.652 539.005,807.915C539.809,810.178 540.991,811.686 542.55,812.441C544.109,813.195 546.095,813.572 548.509,813.572C551.124,813.572 553.161,812.994 554.619,811.837C556.078,810.681 557.058,809.096 557.561,807.085L585.472,814.628C584.365,819.557 581.901,823.655 578.079,826.924C574.257,830.193 569.706,832.632 564.426,834.241C559.145,835.85 553.689,836.655 548.057,836.655Z" style="fill-rule:nonzero;"/>
            <path d="M678.557,759.712L656.38,826.698C653.061,836.655 649.364,844.626 645.291,850.61C641.218,856.595 636.339,860.92 630.657,863.585C624.974,866.25 618.059,867.583 609.912,867.583C605.085,867.583 600.709,867.13 596.787,866.225C592.864,865.32 589.495,864.113 586.679,862.604L593.015,840.728C594.624,841.634 596.359,842.287 598.22,842.69C600.081,843.092 602.822,843.293 606.442,843.293C609.661,843.293 612.05,842.991 613.609,842.388C615.168,841.784 616.249,840.728 616.852,839.22L617.305,838.013L607.8,815.835L586.226,759.712L624.094,759.712L630.883,798.636L633.75,816.288L637.069,798.485L644.612,759.712L678.557,759.712Z" style="fill-rule:nonzero;"/>
        </g>
        <g transform="matrix(1,0,0,1,-4.53106,0.582998)">
            <path d="M89.871,758.204C99.124,758.204 106.667,759.486 112.501,762.051C118.334,764.615 122.634,767.859 125.4,771.782C128.166,775.704 129.599,779.727 129.7,783.851L97.716,793.205C97.716,789.182 97.238,786.24 96.283,784.379C95.327,782.518 93.693,781.588 91.379,781.588C89.368,781.588 87.733,782.066 86.476,783.021C85.219,783.977 84.314,785.636 83.761,788C83.207,790.364 82.931,793.658 82.931,797.882C82.931,802.207 83.308,805.476 84.062,807.688C84.817,809.901 85.848,811.385 87.155,812.139C88.463,812.893 89.921,813.27 91.53,813.27C93.039,813.27 94.246,812.893 95.151,812.139C96.056,811.385 96.785,810.253 97.339,808.744C97.892,807.236 98.219,805.425 98.319,803.313L129.398,812.969C129.297,817.193 127.688,821.09 124.57,824.661C121.452,828.231 117.102,831.123 111.52,833.336C105.938,835.549 99.325,836.655 91.681,836.655C82.629,836.655 74.834,835.121 68.297,832.053C61.759,828.986 56.755,824.535 53.285,818.702C49.815,812.868 48.08,805.777 48.08,797.429C48.08,789.081 49.815,781.99 53.285,776.157C56.755,770.323 61.633,765.873 67.919,762.805C74.206,759.737 81.523,758.204 89.871,758.204Z" style="fill-rule:nonzero;"/>
            <path d="M176.318,758.204C184.767,758.204 192.134,759.737 198.42,762.805C204.706,765.873 209.61,770.323 213.13,776.157C216.65,781.99 218.41,789.081 218.41,797.429C218.41,805.677 216.65,812.742 213.13,818.626C209.61,824.51 204.706,828.986 198.42,832.053C192.134,835.121 184.767,836.655 176.318,836.655C167.97,836.655 160.628,835.121 154.291,832.053C147.955,828.986 143.026,824.51 139.506,818.626C135.986,812.742 134.226,805.677 134.226,797.429C134.226,789.081 135.986,781.99 139.506,776.157C143.026,770.323 147.955,765.873 154.291,762.805C160.628,759.737 167.97,758.204 176.318,758.204ZM176.318,781.588C174.809,781.588 173.502,782.016 172.395,782.871C171.289,783.725 170.459,785.31 169.906,787.623C169.353,789.936 169.076,793.205 169.076,797.429C169.076,801.654 169.353,804.897 169.906,807.16C170.459,809.423 171.289,811.007 172.395,811.913C173.502,812.818 174.809,813.27 176.318,813.27C177.927,813.27 179.26,812.818 180.316,811.913C181.372,811.007 182.177,809.423 182.73,807.16C183.283,804.897 183.56,801.654 183.56,797.429C183.56,793.205 183.283,789.936 182.73,787.623C182.177,785.31 181.372,783.725 180.316,782.871C179.26,782.016 177.927,781.588 176.318,781.588Z" style="fill-rule:nonzero;"/>
            <path d="M262.011,729.539L262.011,805.124C262.011,808.141 262.464,810.354 263.369,811.762C264.274,813.17 265.883,813.874 268.197,813.874C269.303,813.874 270.284,813.798 271.138,813.648C271.993,813.497 272.823,813.321 273.628,813.12L272.119,831.827C270.208,833.235 267.467,834.392 263.897,835.297C260.326,836.202 256.831,836.655 253.412,836.655C244.058,836.655 237.369,834.643 233.346,830.62C229.323,826.597 227.311,819.858 227.311,810.404L227.311,729.539L262.011,729.539Z" style="fill-rule:nonzero;"/>
            <path d="M325.225,835.146L325.225,759.712L356.454,759.712L357.963,791.696L354.493,787.925C355.197,781.689 356.756,776.358 359.17,771.933C361.584,767.507 364.827,764.113 368.901,761.749C372.974,759.385 377.827,758.204 383.46,758.204C388.489,758.204 392.763,759.184 396.283,761.146C399.804,763.107 402.494,765.973 404.355,769.745C406.216,773.517 407.146,778.118 407.146,783.549L407.146,835.146L372.446,835.146L372.446,792.149C372.446,788.93 371.994,786.743 371.088,785.586C370.183,784.429 368.825,783.851 367.015,783.851C365.406,783.851 364.073,784.228 363.017,784.983C361.961,785.737 361.182,786.969 360.679,788.679C360.176,790.389 359.924,792.601 359.924,795.317L359.924,835.146L325.225,835.146Z" style="fill-rule:nonzero;"/>
        </g>
    </g>
    <g transform="matrix(0.185433,0,0,0.185433,-61.1765,-2.61203)">
        <path d="M538.762,16.782C538.762,16.782 546.384,22.064 546.689,24.273C546.994,26.483 544.565,37.324 545.86,39.305C547.155,41.286 554.155,46.774 555.652,53.216C557.149,59.659 552.624,67.922 559.826,71.653C567.029,75.385 575.107,53.376 582.073,56.805C589.039,60.234 610.439,48.185 612.319,44.615C614.199,41.045 618.085,84.995 572.621,105.509C559.412,111.469 571.67,138.657 564.978,148.215C558.286,157.773 569.566,386.386 570.802,407.001C572.038,427.616 594.651,463.354 604.663,493.096C624.34,551.549 607.491,590.846 607.491,590.846C607.491,590.846 599.35,618.132 590.878,629.604C582.406,641.076 589.108,685.347 589.108,685.347C595.124,694.126 587.522,750.771 586.475,751.691C585.607,752.453 583.801,765.724 583.801,765.724C583.801,765.724 580.12,868.143 582.406,872.029C584.692,875.915 594.585,906.874 589.248,918.027C585.173,926.544 597.516,949.454 597.843,949.72C598.17,949.986 600.471,958.028 562.045,953.158C559.15,952.791 563.394,916.511 563.394,916.511C563.394,916.511 559.258,902.523 563.865,890.042C566.86,881.927 559.101,788.812 559.101,788.812C559.101,788.812 548.685,736.929 547.882,735.221C546.177,731.597 545.108,689.946 547.355,685.594C550.406,679.684 543.904,625.135 541.894,630.372C538.91,638.146 505.388,638.138 505.388,638.138C505.388,638.138 496.037,661.599 500,700.685C501.022,710.766 517.915,743.385 500,773.409C492.727,785.598 491.424,869.537 495.36,892.985C499.296,916.433 503.487,908.028 500,925.367C499.005,930.316 498.26,939.779 500,944.004C503.99,953.692 507.122,962.173 507.122,962.173C507.122,962.173 500.917,968.312 470.194,963.275C467.83,962.888 472.198,924.288 472.198,924.288C472.198,924.288 466.545,912.644 475.862,902.969C477.168,901.613 473.586,782.853 473.586,782.853C473.586,782.853 462.957,752.487 467.92,719.373C470.887,699.574 463.031,684.65 463.031,684.65C463.031,684.65 443.652,725.345 443.24,734.823C442.883,743.043 429.178,775.165 421.06,793.882C416.46,804.49 442.873,899.637 442.873,899.637C442.873,899.637 454.267,913.063 451.969,927.132C451.461,930.241 453.788,937.659 453.788,937.659C453.788,937.659 463.901,953.322 465.711,955.91C467.973,959.146 427.163,957.111 427.163,957.111L425.413,931.556C425.413,931.556 417.876,924.911 418.79,920.98C419.705,917.048 419.131,879.336 417.576,877.05C416.022,874.765 411.539,844.047 409.893,846.973C408.247,849.899 407.072,897.444 407.072,897.444C407.072,897.444 413.062,917.521 404.399,926.621C403.13,927.954 405.367,934.145 405.367,934.145C405.367,934.145 413.613,952.87 415.99,953.601C418.367,954.333 383.877,956.91 379.646,952.812C375.416,948.713 379.072,921.675 379.072,921.675C379.072,921.675 372.091,897.404 385.996,892.138C391.717,889.971 393.545,790.372 393.545,790.372C393.545,790.372 374.032,763.691 375.062,750.573C376.092,737.454 369.335,685.928 363.706,690.311C360.371,692.908 357.17,719.224 357.17,719.224C357.17,719.224 369.107,746.306 369.244,764.988C369.382,783.67 363.207,794.697 365.166,831.335C365.703,841.384 356.022,812.245 358.855,809.205C359.679,808.321 355.038,789.167 355.914,788.923C356.791,788.679 344.937,777.127 348.854,751.164C352.771,725.201 352.76,688.896 346.291,655.258C339.822,621.621 322.904,598.507 340.089,537.276C354.583,485.633 410.003,484.403 440.808,455.408C443.436,452.933 509.428,399.913 507.686,330.167C507.522,323.584 509.66,185.483 509.66,185.483C509.66,185.483 489.798,198.905 482.456,181.102C475.115,163.298 481.035,153.733 481.035,153.733C481.035,153.733 501.263,144.999 493.432,123.555C491.487,118.228 483.475,120.297 479.47,103.642C478.255,98.589 455.382,105.432 440.503,63.31C439.404,60.199 478.487,64.576 478.487,64.576C478.487,64.576 488.84,84.964 500,81.877C511.16,78.79 493.334,39.097 529.457,20.87C547.882,11.573 508.559,41.071 524.355,65.292C530.186,74.234 530.685,72.554 530.685,72.554C530.685,72.554 540.69,58.276 535.49,41.845C532.708,33.053 538.762,16.782 538.762,16.782Z" style="stroke:black;stroke-width:5.39px;"/>
    </g>
</svg>
